<svg id="ON" xmlns="http://www.w3.org/2000/svg" viewBox="0 0 64 64"><path d="M51.44,17.08A19.8,19.8,0,0,0,34.27.53,19.68,19.68,0,0,0,12.34,20.07a19.46,19.46,0,0,0,4.14,12.07A26.93,26.93,0,0,1,22.14,46a1.74,1.74,0,0,1,.69-.14H41.17a1.82,1.82,0,0,1,.7.14,28.36,28.36,0,0,1,5.85-14.13A19.6,19.6,0,0,0,51.44,17.08Z" fill="#1bbc9d"/><path d="M27.3,61.31a3.07,3.07,0,0,0,3,2.29h3.48a3.07,3.07,0,0,0,3-2.29Z" fill="#1bbc9d"/><path d="M41.77,50V47.67a.6.6,0,0,0-.6-.6H22.83a.6.6,0,0,0-.6.6v3.74Z" fill="#1bbc9d"/><path d="M41.77,51.16,22.23,52.61v2.64c0,.13,0,.24,0,.37l19.5-1.45Z" fill="#1bbc9d"/><path d="M22.51,56.8a4.85,4.85,0,0,0,4.59,3.31h9.81a4.87,4.87,0,0,0,4.85-4.74Z" fill="#1bbc9d"/></svg>