<svg id="OFF" xmlns="http://www.w3.org/2000/svg" viewBox="0 0 64 64"><path d="M33.74,63.6H30.26a3.08,3.08,0,0,1-3.07-3.07v-1a.6.6,0,0,1,.6-.6h8.42a.6.6,0,0,1,.6.6v1A3.07,3.07,0,0,1,33.74,63.6Zm-5.35-3.49v.42a1.87,1.87,0,0,0,1.87,1.87h3.48a1.87,1.87,0,0,0,1.87-1.87v-.42Z" fill="#959595"/><path d="M22.83,52.56a.61.61,0,0,1-.6-.55.62.62,0,0,1,.56-.65L41.12,50a.6.6,0,1,1,.09,1.19L22.88,52.56Z" fill="#959595"/><path d="M23.05,56.76a.6.6,0,0,1-.05-1.2l18.12-1.35a.6.6,0,0,1,.65.55.62.62,0,0,1-.56.65L23.09,56.76Z" fill="#959595"/><path d="M41.17,48.26H22.83a.6.6,0,0,1-.6-.59,26.39,26.39,0,0,0-5.76-15.54,19.49,19.49,0,0,1-4.13-12.07A19.66,19.66,0,1,1,47.72,31.88c-3.78,5-5.9,10.63-5.95,15.79A.59.59,0,0,1,41.17,48.26Zm-17.75-1.2H40.58a29,29,0,0,1,6.18-15.9,18.46,18.46,0,1,0-29.34.24A27.81,27.81,0,0,1,23.42,47.06Z" fill="#959595"/><path d="M36.91,60.11H27.09a4.87,4.87,0,0,1-4.86-4.86V47.66a.6.6,0,0,1,.6-.6H41.17a.6.6,0,0,1,.6.6v7.59A4.87,4.87,0,0,1,36.91,60.11ZM23.43,48.26v7a3.66,3.66,0,0,0,3.66,3.66h9.82a3.66,3.66,0,0,0,3.66-3.66v-7Z" fill="#959595"/></svg>