<svg id="OFF" xmlns="http://www.w3.org/2000/svg" viewBox="0 0 64 64"><path d="M45.51,55.72h-27a3.17,3.17,0,0,1-3.17-3.17V11.45a3.17,3.17,0,0,1,3.17-3.17h27a3.17,3.17,0,0,1,3.17,3.17v41.1A3.17,3.17,0,0,1,45.51,55.72Zm-27-46.23a2,2,0,0,0-2,2v41.1a2,2,0,0,0,2,2h27a2,2,0,0,0,2-2V11.45a2,2,0,0,0-2-2Z" fill="#959595"/><path d="M32,24.32a6,6,0,1,1,6-6A6,6,0,0,1,32,24.32Zm0-10a4,4,0,1,0,4,4A4,4,0,0,0,32,14.32Z" fill="#959595"/><path d="M33.94,18.34A1.94,1.94,0,1,1,32,16.4,1.94,1.94,0,0,1,33.94,18.34Z" fill="#959595"/><path d="M32,28.94A11.35,11.35,0,1,0,43.35,40.28,11.35,11.35,0,0,0,32,28.94ZM32,48a7.75,7.75,0,1,1,7.75-7.75A7.76,7.76,0,0,1,32,48Z" fill="#959595"/><path d="M35,40.28a3,3,0,1,1-3-3A2.95,2.95,0,0,1,35,40.28Z" fill="#959595"/><path d="M61.81,55.72H49.25a1.81,1.81,0,0,1-1.8-1.8V34.82a1.81,1.81,0,0,1,1.8-1.8H61.81a1.8,1.8,0,0,1,1.79,1.8v19.1A1.8,1.8,0,0,1,61.81,55.72ZM49.25,34.22a.6.6,0,0,0-.6.6v19.1a.6.6,0,0,0,.6.6H61.81a.6.6,0,0,0,.59-.6V34.82a.6.6,0,0,0-.59-.6Z" fill="#959595"/><path d="M57.54,38.58a2,2,0,1,1-2-2A2,2,0,0,1,57.54,38.58Z" fill="#959595"/><path d="M10.49,38.58a2,2,0,1,1-2-2A2,2,0,0,1,10.49,38.58Z" fill="#959595"/><path d="M55.53,53.14a5,5,0,1,1,5-5A5,5,0,0,1,55.53,53.14Zm0-8.18a3.21,3.21,0,1,0,3.2,3.21A3.21,3.21,0,0,0,55.53,45Z" fill="#959595"/><path d="M57.26,48.16a1.74,1.74,0,1,1-1.73-1.73A1.74,1.74,0,0,1,57.26,48.16Z" fill="#959595"/><path d="M.4,53.92V34.82A1.8,1.8,0,0,1,2.19,33H14.75a1.81,1.81,0,0,1,1.8,1.8v19.1a1.81,1.81,0,0,1-1.8,1.8H2.19A1.8,1.8,0,0,1,.4,53.92Zm1.79-19.7a.6.6,0,0,0-.59.6v19.1a.6.6,0,0,0,.59.6H14.75a.6.6,0,0,0,.6-.6V34.82a.6.6,0,0,0-.6-.6Z" fill="#959595"/><path d="M3.5,48.17a5,5,0,1,1,5,5A5,5,0,0,1,3.5,48.17Zm1.77,0A3.21,3.21,0,1,0,8.47,45,3.21,3.21,0,0,0,5.27,48.17Z" fill="#959595"/><path d="M6.74,48.16a1.74,1.74,0,1,0,1.73-1.73A1.74,1.74,0,0,0,6.74,48.16Z" fill="#959595"/></svg>