<svg id="ON" xmlns="http://www.w3.org/2000/svg" viewBox="0 0 64 64"><path d="M36.58,60.54a3,3,0,0,1-2.89,2.2H30.31a3,3,0,0,1-2.89-2.2Z" fill="#1bbc9d"/><path d="M50.46,59a2.78,2.78,0,0,1-2.62,1.87H44.77A2.79,2.79,0,0,1,42.14,59Z" fill="#1bbc9d"/><path d="M47.29,31.89A27.67,27.67,0,0,0,41.6,45.57a1.77,1.77,0,0,0-.69-.14H23.09a1.74,1.74,0,0,0-.69.14,26.25,26.25,0,0,0-5.51-13.43,19.15,19.15,0,0,1,2.36-26,19,19,0,0,1,15-4.74,19.12,19.12,0,0,1,13.09,30.5Z" fill="#1bbc9d"/><path d="M41.5,54.73a4.73,4.73,0,0,1-4.73,4.61H27.23a4.73,4.73,0,0,1-4.45-3.12Z" fill="#1bbc9d"/><path d="M41.51,47.23v2.2L22.49,51V47.23a.6.6,0,0,1,.6-.6H40.91A.6.6,0,0,1,41.51,47.23Z" fill="#1bbc9d"/><path d="M41.51,50.64v2.89l-19,1.52c0-.15,0-.3,0-.45V52.15Z" fill="#1bbc9d"/><path d="M63.71,22.47A17.24,17.24,0,0,1,60,33.15a23.88,23.88,0,0,0-5,12,1.77,1.77,0,0,0-.69-.14H42.88a26.67,26.67,0,0,1,5.37-12.37A20.26,20.26,0,0,0,45.34,5.1,17.19,17.19,0,0,1,57.9,9.5,17.43,17.43,0,0,1,63.71,22.47Z" fill="#1bbc9d"/><path d="M42.71,54l12,.82a4.34,4.34,0,0,1-4.12,3H41.75a5.87,5.87,0,0,0,1-3.23Z" fill="#1bbc9d"/><path d="M55,46.79v3.15L42.71,49.1V47.23a1.71,1.71,0,0,0-.34-1h12A.6.6,0,0,1,55,46.79Z" fill="#1bbc9d"/><path d="M42.71,50.3,55,51.15v2.32a1.09,1.09,0,0,1,0,.18l-12.26-.84Z" fill="#1bbc9d"/><path d="M13.54,59a2.78,2.78,0,0,0,2.62,1.87h3.07A2.79,2.79,0,0,0,21.86,59Z" fill="#1bbc9d"/><path d="M.29,22.47A17.24,17.24,0,0,0,4,33.15a23.88,23.88,0,0,1,5,12A1.77,1.77,0,0,1,9.62,45h11.5a26.67,26.67,0,0,0-5.37-12.37A20.26,20.26,0,0,1,18.66,5.1,17.19,17.19,0,0,0,6.1,9.5,17.43,17.43,0,0,0,.29,22.47Z" fill="#1bbc9d"/><path d="M21.29,54l-12,.82a4.34,4.34,0,0,0,4.12,3h8.88a5.87,5.87,0,0,1-1-3.23Z" fill="#1bbc9d"/><path d="M9,46.79v3.15l12.27-.84V47.23a1.71,1.71,0,0,1,.34-1h-12A.6.6,0,0,0,9,46.79Z" fill="#1bbc9d"/><path d="M21.29,50.3,9,51.15v2.32a1.09,1.09,0,0,0,0,.18l12.26-.84Z" fill="#1bbc9d"/></svg>