<svg id="OFF" xmlns="http://www.w3.org/2000/svg" viewBox="0 0 64 64"><line x1="22.98" y1="51.41" x2="40.81" y2="50.08" fill="none" stroke="#959595" stroke-linecap="round" stroke-linejoin="round" stroke-width="1.2"/><line x1="40.81" y1="54.17" x2="23.19" y2="55.48" fill="none" stroke="#959595" stroke-linecap="round" stroke-linejoin="round" stroke-width="1.2"/><path d="M27.8,58.74v1a2.4,2.4,0,0,0,2.4,2.41h3.39A2.41,2.41,0,0,0,36,59.73v-1Z" fill="none" stroke="#959595" stroke-linecap="round" stroke-linejoin="round" stroke-width="1.2"/><line x1="22.98" y1="49.59" x2="9.72" y2="50.58" fill="none" stroke="#959595" stroke-linecap="round" stroke-linejoin="round" stroke-width="1.2"/><line x1="22.98" y1="53.31" x2="9.91" y2="54.28" fill="none" stroke="#959595" stroke-linecap="round" stroke-linejoin="round" stroke-width="1.2"/><path d="M14.09,57.24v.89a2.18,2.18,0,0,0,2.18,2.18h3.07a2.18,2.18,0,0,0,2.18-2.18v-.89Z" fill="none" stroke="#959595" stroke-linecap="round" stroke-linejoin="round" stroke-width="1.2"/><line x1="54.28" y1="50.58" x2="41.02" y2="49.59" fill="none" stroke="#959595" stroke-linecap="round" stroke-linejoin="round" stroke-width="1.2"/><line x1="54.09" y1="54.28" x2="41.02" y2="53.31" fill="none" stroke="#959595" stroke-linecap="round" stroke-linejoin="round" stroke-width="1.2"/><path d="M49.91,57.24v.89a2.18,2.18,0,0,1-2.18,2.18H44.66a2.18,2.18,0,0,1-2.18-2.18v-.89Z" fill="none" stroke="#959595" stroke-linecap="round" stroke-linejoin="round" stroke-width="1.2"/><path d="M40.81,47.23c0-5.34,2.32-10.94,5.9-15.7a18.53,18.53,0,1,0-29.45.24A26.26,26.26,0,0,1,23,47.23Z" fill="none" stroke="#959595" stroke-linecap="round" stroke-linejoin="round" stroke-width="1.2"/><path d="M36.66,58.74H27.12A4.14,4.14,0,0,1,23,54.6V47.23H40.81V54.6A4.14,4.14,0,0,1,36.66,58.74Z" fill="none" stroke="#959595" stroke-linecap="round" stroke-linejoin="round" stroke-width="1.2"/><path d="M20.4,5.87c-.22,0-.44-.07-.66-.09a16.8,16.8,0,0,0-15.2,27,23.64,23.64,0,0,1,5.18,14H23" fill="none" stroke="#959595" stroke-linecap="round" stroke-linejoin="round" stroke-width="1.2"/><path d="M23.67,56.91a3.78,3.78,0,0,1-1.55.33H13.48a3.76,3.76,0,0,1-3.76-3.77V46.79H23" fill="none" stroke="#959595" stroke-linecap="round" stroke-linejoin="round" stroke-width="1.2"/><path d="M41,46.79H54.28a23.64,23.64,0,0,1,5.18-14,16.8,16.8,0,0,0-15.2-27c-.22,0-.44.06-.66.09" fill="none" stroke="#959595" stroke-linecap="round" stroke-linejoin="round" stroke-width="1.2"/><path d="M41,46.79H54.28v6.68a3.76,3.76,0,0,1-3.76,3.77H41.88a3.78,3.78,0,0,1-1.55-.33" fill="none" stroke="#959595" stroke-linecap="round" stroke-linejoin="round" stroke-width="1.2"/></svg>