<svg id="ON" xmlns="http://www.w3.org/2000/svg" viewBox="0 0 64 64"><path d="M50.53,60.58H13.47a.6.6,0,0,1-.6-.6V20a.6.6,0,0,1,.6-.6H50.53a.6.6,0,0,1,.6.6V60A.6.6,0,0,1,50.53,60.58Zm-36.46-1.2H49.93V20.59H14.07Z" fill="#1bbc9d"/><path d="M50.53,25.5H13.47a.6.6,0,0,1,0-1.2H50.53a.6.6,0,1,1,0,1.2Z" fill="#1bbc9d"/><path d="M50.53,25.5H13.47a.6.6,0,0,1,0-1.2H50.53a.6.6,0,1,1,0,1.2Z" fill="#1bbc9d"/><path d="M50.53,30.41H13.47a.6.6,0,1,1,0-1.2H50.53a.6.6,0,1,1,0,1.2Z" fill="#1bbc9d"/><path d="M50.53,35.32H13.47a.6.6,0,1,1,0-1.2H50.53a.6.6,0,0,1,0,1.2Z" fill="#1bbc9d"/><path d="M61.26,11.35H2.74A2.34,2.34,0,0,1,.4,9V5.76A2.34,2.34,0,0,1,2.74,3.42H61.26A2.34,2.34,0,0,1,63.6,5.76V9A2.34,2.34,0,0,1,61.26,11.35ZM2.74,4.62A1.14,1.14,0,0,0,1.6,5.76V9a1.14,1.14,0,0,0,1.14,1.14H61.26A1.14,1.14,0,0,0,62.4,9V5.76a1.14,1.14,0,0,0-1.14-1.14Z" fill="#959595"/><path d="M60.13,60.58H3.87a.6.6,0,0,1-.6-.6V10.75a.6.6,0,0,1,.6-.6H60.13a.6.6,0,0,1,.6.6V60A.6.6,0,0,1,60.13,60.58ZM4.47,59.38H59.53v-48H4.47Z" fill="#959595"/></svg>