<svg id="OFF" xmlns="http://www.w3.org/2000/svg" viewBox="0 0 64 64"><path d="M50.12,63.6H13.88A4.87,4.87,0,0,1,9,58.74V5.26A4.87,4.87,0,0,1,13.88.4H50.12A4.87,4.87,0,0,1,55,5.26V58.74A4.87,4.87,0,0,1,50.12,63.6ZM13.88,1.6a3.66,3.66,0,0,0-3.66,3.66V58.74a3.66,3.66,0,0,0,3.66,3.66H50.12a3.66,3.66,0,0,0,3.66-3.66V5.26A3.66,3.66,0,0,0,50.12,1.6Z" fill="#959595"/><path d="M34.55,13.73A2.55,2.55,0,1,1,32,11.18,2.55,2.55,0,0,1,34.55,13.73Z" fill="#959595"/><path d="M32,5.94a7.79,7.79,0,1,0,7.79,7.79A7.81,7.81,0,0,0,32,5.94Zm0,13a5.19,5.19,0,1,1,5.19-5.19A5.2,5.2,0,0,1,32,18.92Z" fill="#959595"/><path d="M34.54,43.08A2.54,2.54,0,1,1,32,40.54,2.55,2.55,0,0,1,34.54,43.08Z" fill="#959595"/><path d="M32,48.1a5,5,0,1,1,5-5A5,5,0,0,1,32,48.1Z" fill="#959595"/><path d="M32,28.11a15,15,0,1,0,15,15A15,15,0,0,0,32,28.11Zm0,25.76A10.79,10.79,0,1,1,42.79,43.08,10.8,10.8,0,0,1,32,53.87Z" fill="#959595"/></svg>