<svg id="OFF" xmlns="http://www.w3.org/2000/svg" viewBox="0 0 64 64"><path d="M55.06,53.68H8.94a6.78,6.78,0,0,1-6.58-5.27,72.22,72.22,0,0,1-.07-33,6.68,6.68,0,0,1,6.54-5.1H55.17a6.68,6.68,0,0,1,6.54,5.1h0a72.22,72.22,0,0,1-.07,33A6.78,6.78,0,0,1,55.06,53.68ZM8.83,11.52A5.48,5.48,0,0,0,3.46,15.7a71.13,71.13,0,0,0,.06,32.45,5.6,5.6,0,0,0,5.42,4.33H55.06a5.58,5.58,0,0,0,5.41-4.33,71,71,0,0,0,.07-32.45,5.48,5.48,0,0,0-5.37-4.18Z" fill="#959595"/><path d="M40,46.48H11.75a3.4,3.4,0,0,1-3.39-3.37L8.28,20.92a3.36,3.36,0,0,1,1-2.4,3.33,3.33,0,0,1,2.39-1H40a3.4,3.4,0,0,1,3.38,3.4l-.08,22.19A3.4,3.4,0,0,1,40,46.48ZM11.66,18.72a2.19,2.19,0,0,0-2.18,2.19L9.56,43.1a2.2,2.2,0,0,0,2.19,2.18H40a2.2,2.2,0,0,0,2.19-2.18l.08-22.19A2.19,2.19,0,0,0,40,18.72Z" fill="#959595"/><path d="M52.48,29a.6.6,0,0,1-.6-.6v-7.6a.6.6,0,1,1,1.19,0v7.6A.59.59,0,0,1,52.48,29Z" fill="#1bbc9d"/><path d="M56.27,25.19H48.68a.6.6,0,1,1,0-1.2h7.59a.6.6,0,1,1,0,1.2Z" fill="#1bbc9d"/><path d="M56.27,43.81H48.68a.6.6,0,0,1,0-1.2h7.59a.6.6,0,1,1,0,1.2Z" fill="#1bbc9d"/><path d="M39.13,30.24H36.49a.6.6,0,0,1,0-1.2h2.64a.6.6,0,1,1,0,1.2Z" fill="#1bbc9d"/><path d="M39.13,33.82H36.49a.6.6,0,1,1,0-1.2h2.64a.6.6,0,1,1,0,1.2Z" fill="#1bbc9d"/><path d="M39.13,37.39H36.49a.6.6,0,0,1,0-1.2h2.64a.6.6,0,1,1,0,1.2Z" fill="#1bbc9d"/><path d="M39.13,41H36.49a.6.6,0,1,1,0-1.2h2.64a.6.6,0,0,1,0,1.2Z" fill="#1bbc9d"/><polygon points="17.57 27.72 23.07 27.72 18.13 37.8 20 37.8 24.97 27.39 24.99 26.2 17.57 26.2 17.57 27.72" fill="#959595"/><path d="M30.24,26c-2.51,0-4.07,2.31-4.07,6s1.52,6,3.88,6c2.59,0,4.08-2.23,4.08-6.12C34.13,28.14,32.71,26,30.24,26ZM32.34,32c0,1.72-.29,4.61-2.2,4.61-1.35,0-2.18-1.73-2.18-4.51s.84-4.61,2.2-4.61C32.06,27.44,32.34,30.27,32.34,32Z" fill="#959595"/></svg>