<svg id="OFF" xmlns="http://www.w3.org/2000/svg" viewBox="0 0 64 64"><path d="M32,52.19a25.9,25.9,0,1,1,25.89-25.9A25.92,25.92,0,0,1,32,52.19ZM32,1.6A24.7,24.7,0,1,0,56.69,26.29,24.72,24.72,0,0,0,32,1.6Z" fill="#959595"/><path d="M32,43.67A17.38,17.38,0,1,1,49.38,26.29,17.4,17.4,0,0,1,32,43.67Zm0-33.56A16.18,16.18,0,1,0,48.18,26.29,16.2,16.2,0,0,0,32,10.11Z" fill="#959595"/><path d="M33,14.29c1.29,5.19-1.53,11.58-8.45,11.58a9,9,0,0,1-4.45-1.1A12.64,12.64,0,0,0,20,26.29a12.05,12.05,0,1,0,13-12Z" fill="#1bbc9d"/><path d="M11.79,63.6a3.74,3.74,0,0,1-3.32-5.39,43.54,43.54,0,0,1,8.69-11.57.6.6,0,1,1,.83.86A42.39,42.39,0,0,0,9.55,58.75a2.53,2.53,0,0,0,2.93,3.55,71.72,71.72,0,0,1,39,0,2.53,2.53,0,0,0,2.93-3.55A42.39,42.39,0,0,0,46,47.5a.6.6,0,0,1,0-.85.61.61,0,0,1,.85,0,43.54,43.54,0,0,1,8.69,11.57,3.73,3.73,0,0,1-4.33,5.25,70.56,70.56,0,0,0-38.4,0A4,4,0,0,1,11.79,63.6Z" fill="#959595"/></svg>