<svg id="OFF" xmlns="http://www.w3.org/2000/svg" viewBox="0 0 64 64">
    <path fill="#1bbc9d"
          d="M12.44,44a.63.63,0,0,1-.43-.17L.58,32.42a.58.58,0,0,1,0-.84L12,20.14a.62.62,0,0,1,.66-.13.6.6,0,0,1,.37.55V43.44a.6.6,0,0,1-.37.55A.66.66,0,0,1,12.44,44ZM1.85,32l10,10V22Z"/>
    <path fill="#959595"
          d="M20.06,38.32a.59.59,0,0,1-.23,0,.6.6,0,0,1-.37-.55V12.94a.56.56,0,0,1,.18-.42L31.57.59a.6.6,0,0,1,.85,0L44.8,13a.6.6,0,0,1,.18.43.56.56,0,0,1-.18.42L20.48,38.14A.56.56,0,0,1,20.06,38.32Zm.6-25.13V36.27L43.53,13.38,32,1.86Z"/>
    <path fill="#959595"
          d="M32,63.59a.56.56,0,0,1-.42-.18L18.34,50.19a.61.61,0,0,1,0-.85L31.76,35.92a.59.59,0,0,1,.42-.17h0a.63.63,0,0,1,.43.17L45.83,49.15a.59.59,0,0,1,0,.85L32.42,63.41A.6.6,0,0,1,32,63.59ZM19.61,49.76,32,62.14,44.56,49.57,32.18,37.19Z"/>
    <path fill="#959595"
          d="M50.8,44.8a.56.56,0,0,1-.42-.18L37.15,31.4A.63.63,0,0,1,37,31a.59.59,0,0,1,.17-.42l12.2-12.2a.59.59,0,0,1,.85,0L63.42,31.58a.58.58,0,0,1,0,.84L51.23,44.62A.6.6,0,0,1,50.8,44.8ZM38.42,31,50.8,43.35,62.15,32,49.77,19.62Z"/>
</svg>
