<svg width="680" height="292" xmlns="http://www.w3.org/2000/svg" xmlns:xlink="http://www.w3.org/1999/xlink" version="1.1" preserveAspectRatio="xMidYMid meet">
    <defs>
        <path fill="#000" stroke="#000" d="m0,286.30191c0,-53.09999 0,-82.59999 0,-88.49998c0,-1.7 0.61,-3.19 1.81,-4.44c1.21001,-1.23 2.59001,-1.86 4.14,-1.86c1.71001,0 3.18001,0.63 4.39,1.86c1.20001,1.25 1.8,2.74002 1.8,4.44c0,8.84999 0,79.65001 0,88.49998c0,1.71002 -0.59999,3.18002 -1.8,4.37003c-1.20999,1.22 -2.67999,1.81998 -4.39,1.81998c-1.54999,0 -2.92999,-0.59998 -4.14,-1.81998c-1.2,-1.19 -1.81,-2.66 -1.81,-4.37003" id="aryEa10aa"/>
        <path d="m10.47,166.66193c0,-25.75 0,-40.05 0,-42.91c0,-1.84 -4.88,4.28001 -0.74001,2.18c12.62001,-6.42 25.24001,-12.83 37.86,-19.24c46.06001,-23.41 92.11001,-46.81 138.17001,-70.21c15.79001,-8.03 31.58002,-16.06 47.37999,-24.07c1.66,-0.85 3.32002,-1.69 4.97,-2.53c3.59001,-1.82 -0.07999,0.75 -3.25,-0.86c3,1.52 5.98001,3.04 8.98001,4.55c40.53,20.6 81.06998,41.2 121.60001,61.8c26.67999,13.57 53.37997,27.12 80.06,40.67c6.46997,3.3 12.95996,6.59 19.43002,9.89c4.14996,2.10001 -0.73001,-3.88 -0.73001,-2.65c0,16.38 0,147.36999 0,163.74999c0,6.42001 9.97,6.42001 9.97,0c0,-16.45001 0,-148.06999 0,-164.52999c0,-1.67 -0.92999,-3.51 -2.47,-4.29c-72.44,-36.81 -144.87003,-73.62001 -217.31003,-110.43c-4.68999,-2.38 -14.44998,-9.99 -20.01999,-7.16c-3.25,1.65 -29.27002,14.87 -32.52002,16.52c-45.66998,23.22 -91.34998,46.42 -137.01999,69.62999c-20.63,10.48 -41.24001,20.96002 -61.86,31.44001c-1.53999,0.78 -2.47,2.62 -2.47,4.29c0,4.42 0,39.74 0,44.16c0,6.42 9.97,6.42 9.97,0" id="b2eZzU9dy" fill="#1bbc9b" stroke="#1bbc9b"/>
        <path d="m344.30002,226.22192c0,2.8 -2.26999,5.06999 -5.06,5.06999c-2.80002,0 -5.07001,-2.26999 -5.07001,-5.06999c0,-2.8 2.26999,-5.06 5.07001,-5.06c2.79001,0 5.06,2.25998 5.06,5.06" id="d6TIEYBCni" fill="#1bbc9b" stroke="#1bbc9b"/>
    </defs>
    <g>
        <title>Layer 1</title>
        <g id="svg_1">
            <g id="svg_2">
                <use xlink:href="#aryEa10aa" fill="#000000" id="svg_3" y="-0.00001" x="102.91498"/>
                <g id="svg_4">
                    <use xlink:href="#aryEa10aa" fill-opacity="0" stroke="#000000" stroke-opacity="0" id="svg_5" y="-0.00001" x="102.91498"/>
                </g>
            </g>
            <g id="svg_6">
                <use xlink:href="#b2eZzU9dy" fill="#000000" id="svg_7" y="-0.00001" x="102.91498"/>
                <g id="svg_8">
                    <use xlink:href="#b2eZzU9dy" fill-opacity="0" stroke="#000000" stroke-opacity="0" id="svg_9" y="-0.00001" x="102.91498"/>
                </g>
            </g>
            <g id="svg_10">
                <use xlink:href="#d6TIEYBCni" fill="#000000" id="svg_11" y="-0.00001" x="102.91498"/>
                <g id="svg_12">
                    <use xlink:href="#d6TIEYBCni" fill-opacity="0" stroke="#000000" stroke-opacity="0" id="svg_13" y="-0.00001" x="102.91498"/>
                </g>
            </g>
        </g>
    </g>
</svg>
