<?xml version="1.0" encoding="UTF-8" standalone="no"?>
<!DOCTYPE svg PUBLIC "-//W3C//DTD SVG 1.1//EN" "http://www.w3.org/Graphics/SVG/1.1/DTD/svg11.dtd">
<svg version="1.1" xmlns="http://www.w3.org/2000/svg" xmlns:xlink="http://www.w3.org/1999/xlink"
     preserveAspectRatio="xMidYMid meet" viewBox="0 0 640 300" width="640" height="350">
    <defs>
        <path fill=" #000" stroke=" #000"
              d="M0.37 286.3C0.37 193.35 0.37 141.72 0.37 131.39C0.37 129.69 0.96 128.2 2.18 126.95C3.37 125.72 4.76 125.09 6.32 125.09C8.03 125.09 9.5 125.72 10.69 126.95C11.91 128.2 12.51 129.69 12.51 131.39C12.51 146.02 12.51 263.04 12.51 277.66C12.51 279.93 13.63 281.05 15.89 281.05C22.97 281.05 79.56 281.05 86.64 281.05C88.11 281.05 89.4 281.62 90.49 282.75C91.58 283.88 92.12 285.21 92.12 286.77C92.12 288.32 91.58 289.67 90.49 290.8C89.4 291.92 88.11 292.49 86.64 292.49C78.58 292.49 14.14 292.49 6.09 292.49C4.45 292.49 3.09 291.94 2 290.85C0.91 289.76 0.37 288.25 0.37 286.3"
              id="g1kmeyjrdc"></path>
        <path fill=" #000" stroke=" #000"
              d="M166.2 286.3C166.2 233.2 166.2 203.7 166.2 197.8C166.2 196.1 166.81 194.61 168.01 193.36C169.22 192.13 170.6 191.5 172.15 191.5C173.86 191.5 175.33 192.13 176.54 193.36C177.74 194.61 178.34 196.1 178.34 197.8C178.34 206.65 178.34 277.45 178.34 286.3C178.34 288.01 177.74 289.48 176.54 290.67C175.33 291.89 173.86 292.49 172.15 292.49C170.6 292.49 169.22 291.89 168.01 290.67C166.81 289.48 166.2 288.01 166.2 286.3"
              id="aryEa10aa"></path>
        <path fill=" #000" stroke=" #000"
              d="M256.05 263.77C256.05 262.14 256.49 260.74 257.38 259.57C258.28 258.4 259.5 257.82 261.07 257.82C262 257.82 262.83 257.97 263.57 258.28C264.31 258.6 264.88 258.93 265.27 259.27C265.66 259.63 266.32 260.27 267.26 261.2C282.35 276.3 299.28 283.85 318.04 283.85C330.57 283.85 340.46 280.88 347.74 274.91C355.02 268.96 358.66 260.97 358.66 250.93C358.66 244.16 357.38 238.62 354.81 234.3C352.24 229.98 347.7 226.21 341.2 222.98C334.7 219.75 325.47 216.84 313.48 214.27C304.61 212.41 297.06 210.29 290.84 207.92C284.61 205.54 279.05 202.51 274.14 198.81C269.24 195.12 265.6 190.58 263.22 185.21C260.85 179.84 259.67 173.53 259.67 166.29C259.67 153.61 264.3 143.1 273.56 134.77C282.82 126.45 295.31 122.28 311.03 122.28C321.46 122.28 330.22 123.67 337.3 126.43C344.38 129.2 351.19 132.91 357.73 137.58C361.54 140.46 363.45 143.34 363.45 146.22C363.45 147.77 362.98 149.08 362.05 150.13C361.11 151.18 360.06 151.7 358.9 151.7C357.57 151.7 356.46 151.49 355.56 151.07C354.67 150.64 353.45 149.8 351.89 148.55C339.75 138.51 325.98 133.49 310.57 133.49C298.19 133.49 288.59 136.47 281.78 142.43C274.97 148.38 271.57 156.25 271.57 166.06C271.57 175.79 274.96 183.36 281.73 188.77C288.5 194.18 300.59 198.79 318.04 202.6C336.64 206.65 350 212.25 358.13 219.41C366.26 226.57 370.34 236.65 370.34 249.65C370.34 263.5 365.51 274.55 355.86 282.8C346.21 291.05 333.41 295.17 317.45 295.17C297.3 295.17 278.35 287.27 260.6 271.48C257.57 268.83 256.05 266.26 256.05 263.77"
              id="j1BriBRMTT"></path>
        <path fill=" #000" stroke=" #000"
              d="M431.05 286.3C431.05 285.45 431.22 284.55 431.53 283.62C438.49 268.01 494.14 143.14 501.1 127.54C502.11 125.12 504.42 123.92 507.98 123.92C511.56 123.92 513.78 125.12 514.65 127.54C521.58 143.14 577.05 268.01 583.98 283.62C584.29 284.55 584.45 285.45 584.45 286.3C584.45 287 584.33 287.75 584.1 288.52C583.55 290.09 582.58 291.24 581.18 292.02C580.4 292.33 579.62 292.49 578.84 292.49C578.07 292.49 577.29 292.33 576.51 292.02C574.95 291.4 573.79 290.27 573.01 288.64C568.64 278.63 546.81 228.59 507.52 138.51C468.36 228.59 446.61 278.63 442.26 288.64C441.64 290.27 440.55 291.4 439 292.02C438.21 292.33 437.4 292.49 436.54 292.49C435.76 292.49 435.02 292.33 434.32 292.02C432.93 291.24 431.95 290.09 431.4 288.52C431.17 287.75 431.05 287 431.05 286.3"
              id="b248kKpAzD"></path>
        <path d="M176.67 166.66C176.67 140.91 176.67 126.61 176.67 123.75C176.67 121.91 171.79 128.03 175.93 125.93C188.55 119.51 201.17 113.1 213.79 106.69C259.85 83.28 305.9 59.88 351.96 36.48C367.75 28.45 383.54 20.42 399.34 12.41C401 11.56 402.66 10.72 404.31 9.88C407.9 8.06 404.23 10.63 401.06 9.02C404.06 10.54 407.04 12.06 410.04 13.57C450.57 34.17 491.11 54.77 531.64 75.37C558.32 88.94 585.02 102.49 611.7 116.04C618.17 119.34 624.66 122.63 631.13 125.93C635.28 128.03 630.4 122.05 630.4 123.28C630.4 139.66 630.4 270.65 630.4 287.03C630.4 293.45 640.37 293.45 640.37 287.03C640.37 270.58 640.37 138.96 640.37 122.5C640.37 120.83 639.44 118.99 637.9 118.21C565.46 81.4 493.03 44.59 420.59 7.78C415.9 5.4 406.14 -2.21 400.57 0.62C397.32 2.27 371.3 15.49 368.05 17.14C322.38 40.36 276.7 63.56 231.03 86.77C210.4 97.25 189.79 107.73 169.17 118.21C167.63 118.99 166.7 120.83 166.7 122.5C166.7 126.92 166.7 162.24 166.7 166.66C166.7 173.08 176.67 173.08 176.67 166.66"
              id="b2eZzU9dy" fill="#1bbc9b" stroke="#1bbc9b"></path>
        <path d="M510.5 226.22C510.5 229.02 508.23 231.29 505.44 231.29C502.64 231.29 500.37 229.02 500.37 226.22C500.37 223.42 502.64 221.16 505.44 221.16C508.23 221.16 510.5 223.42 510.5 226.22"
              id="d6TIEYBCni" fill="#1bbc9b" stroke="#1bbc9b"></path>
    </defs>
    <g>
        <g>
            <use xlink:href="#g1kmeyjrdc" opacity="1" fill="#000000" fill-opacity="1"></use>
            <g>
                <use xlink:href="#g1kmeyjrdc" opacity="1" fill-opacity="0" stroke="#000000" stroke-width="1"
                     stroke-opacity="0"></use>
            </g>
        </g>
        <g>
            <use xlink:href="#aryEa10aa" opacity="1" fill="#000000" fill-opacity="1"></use>
            <g>
                <use xlink:href="#aryEa10aa" opacity="1" fill-opacity="0" stroke="#000000" stroke-width="1"
                     stroke-opacity="0"></use>
            </g>
        </g>
        <g>
            <use xlink:href="#j1BriBRMTT" opacity="1" fill="#000000" fill-opacity="1"></use>
            <g>
                <use xlink:href="#j1BriBRMTT" opacity="1" fill-opacity="0" stroke="#000000" stroke-width="1"
                     stroke-opacity="0"></use>
            </g>
        </g>
        <g>
            <use xlink:href="#b248kKpAzD" opacity="1" fill="#000000" fill-opacity="1"></use>
            <g>
                <use xlink:href="#b248kKpAzD" opacity="1" fill-opacity="0" stroke="#000000" stroke-width="1"
                     stroke-opacity="0"></use>
            </g>
        </g>
        <g>
            <use xlink:href="#b2eZzU9dy" opacity="1" fill="#000000" fill-opacity="1"></use>
            <g>
                <use xlink:href="#b2eZzU9dy" opacity="1" fill-opacity="0" stroke="#000000" stroke-width="1"
                     stroke-opacity="0"></use>
            </g>
        </g>
        <g>
            <use xlink:href="#d6TIEYBCni" opacity="1" fill="#000000" fill-opacity="1"></use>
            <g>
                <use xlink:href="#d6TIEYBCni" opacity="1" fill-opacity="0" stroke="#000000" stroke-width="1"
                     stroke-opacity="0"></use>
            </g>
        </g>
    </g>
</svg>
