<?xml version="1.0" encoding="UTF-8" standalone="no"?>
<!DOCTYPE svg PUBLIC "-//W3C//DTD SVG 1.1//EN" "http://www.w3.org/Graphics/SVG/1.1/DTD/svg11.dtd">
<svg version="1.1" xmlns="http://www.w3.org/2000/svg" xmlns:xlink="http://www.w3.org/1999/xlink"
     preserveAspectRatio="xMidYMid meet" viewBox="0 0 640 350" width="640" height="350">
    <defs>
        <path fill="#fff" stroke="#fff" d="M3.3 338.44L14.92 338.44L14.92 340.7L0.77 340.7L0.77 315.77L3.3 315.77"
              id="aEH24TwR9"></path>
        <path fill="#fff" stroke="#fff"
              d="M20.13 340.7L17.73 340.7L17.73 324.22L20.13 324.22L20.13 340.7ZM18.94 319.56C18.1 319.56 17.24 318.86 17.24 317.87C17.24 316.89 18.1 316.19 18.94 316.19C19.78 316.19 20.63 316.89 20.63 317.87C20.63 318.86 19.78 319.56 18.94 319.56"
              id="aMJTZ00r3"></path>
        <path fill="#fff" stroke="#fff"
              d="M33.19 338.65C36.89 338.65 39.54 336.04 39.54 332.24C39.54 328.79 36.89 325.8 33.19 325.8C29.21 325.8 26.97 328.79 26.97 332.24C26.97 335.69 29.21 338.65 33.19 338.65M26.51 344.01C27.81 345.7 30.32 347.03 32.81 347.03C37.53 347.03 39.25 344.13 39.25 340.56C39.25 340.35 39.25 339.32 39.25 337.46C39.21 337.46 39.19 337.46 39.19 337.46C37.92 339.51 35.35 340.7 32.95 340.7C27.81 340.7 24.43 337.13 24.43 332.32C24.43 327.63 27.81 323.79 32.95 323.79C35.35 323.79 37.88 324.95 39.19 327.07C39.19 327.07 39.21 327.07 39.25 327.07L39.25 324.22L41.65 324.22C41.65 334.02 41.65 339.47 41.65 340.56C41.65 344.15 39.99 349.15 32.7 349.15C29.68 349.15 26.72 347.87 24.78 345.84"
              id="azgCrJJVD"></path>
        <path fill="#fff" stroke="#fff"
              d="M49.54 326.93C50.42 325.03 52.74 323.8 55.06 323.8C59.25 323.8 61.33 326.5 61.33 330.6C61.33 331.27 61.33 334.64 61.33 340.7L58.94 340.7C58.94 335.22 58.94 332.18 58.94 331.57C58.94 328.12 57.92 325.8 54.47 325.8C51.92 325.8 49.46 327.85 49.46 332.24C49.46 332.81 49.46 335.63 49.46 340.7L47.07 340.7L47.07 314.07L49.46 314.07L49.46 326.93"
              id="b1AW4rNs5a"></path>
        <path fill="#fff" stroke="#fff"
              d="M74.08 326.23L69.44 326.23C69.44 331.99 69.44 335.2 69.44 335.84C69.44 338.3 70.45 338.87 71.9 338.87C72.56 338.87 73.34 338.65 73.98 338.34C73.99 338.55 74.07 340.21 74.08 340.42C73.24 340.73 72.35 340.91 71.26 340.91C69.5 340.91 67.04 340.13 67.04 336.51C67.04 335.83 67.04 332.4 67.04 326.23L63.62 326.23L63.62 324.22L67.04 324.22L67.04 319.56L69.44 319.56L69.44 324.22L74.08 324.22"
              id="d5ZSR8JtF"></path>
        <path fill="#fff" stroke="#fff"
              d="M77.24 324.22L81.23 337.6L81.3 337.6L85.74 324.22L88.06 324.22L92.56 337.6L92.64 337.6L96.58 324.22L99.11 324.22L93.9 340.7L91.3 340.7L86.89 327.34L86.83 327.34L82.5 340.7L79.89 340.7L74.68 324.22"
              id="ihx3aXOdg"></path>
        <path fill="#fff" stroke="#fff"
              d="M114.89 331.19C114.76 328.09 112.85 325.8 109.44 325.8C106.23 325.8 103.87 328.38 103.65 331.19C105.9 331.19 112.64 331.19 114.89 331.19ZM117.29 333.09C109.09 333.09 104.54 333.09 103.63 333.09C103.69 336.41 106.26 339.08 109.65 339.08C112.11 339.08 114.02 337.71 114.92 336.23C115.11 336.37 116.55 337.49 116.73 337.63C114.78 340.1 112.36 341.12 109.65 341.12C104.74 341.12 101.12 337.42 101.12 332.45C101.12 327.48 104.74 323.79 109.44 323.79C114.61 323.79 117.32 327.46 117.32 331.96C117.32 332.28 117.32 332.67 117.29 333.09"
              id="akmmKP5dU"></path>
        <path fill="#fff" stroke="#fff"
              d="M124.02 340.7L121.62 340.7L121.62 324.22L124.02 324.22L124.02 340.7ZM122.81 319.56C121.97 319.56 121.12 318.86 121.12 317.87C121.12 316.89 121.97 316.19 122.81 316.19C123.67 316.19 124.51 316.89 124.51 317.87C124.51 318.86 123.67 319.56 122.81 319.56"
              id="b7XEEBnN"></path>
        <path fill="#fff" stroke="#fff"
              d="M137.08 338.65C140.78 338.65 143.42 336.04 143.42 332.24C143.42 328.79 140.78 325.8 137.08 325.8C133.1 325.8 130.84 328.79 130.84 332.24C130.84 335.69 133.1 338.65 137.08 338.65M130.39 344.01C131.68 345.7 134.19 347.03 136.69 347.03C141.41 347.03 143.14 344.13 143.14 340.56C143.14 340.35 143.14 339.32 143.14 337.46C143.09 337.46 143.06 337.46 143.06 337.46C141.8 339.51 139.22 340.7 136.83 340.7C131.68 340.7 128.31 337.13 128.31 332.32C128.31 327.63 131.68 323.79 136.83 323.79C139.22 323.79 141.76 324.95 143.06 327.07C143.06 327.07 143.09 327.07 143.14 327.07L143.14 324.22L145.52 324.22C145.52 334.02 145.52 339.47 145.52 340.56C145.52 344.15 143.88 349.15 136.59 349.15C133.55 349.15 130.59 347.87 128.66 345.84"
              id="dVmoRtjxV"></path>
        <path fill="#fff" stroke="#fff"
              d="M153.41 326.93C154.29 325.03 156.61 323.8 158.95 323.8C163.14 323.8 165.21 326.5 165.21 330.6C165.21 331.27 165.21 334.64 165.21 340.7L162.81 340.7C162.81 335.22 162.81 332.18 162.81 331.57C162.81 328.12 161.79 325.8 158.34 325.8C155.81 325.8 153.34 327.85 153.34 332.24C153.34 332.81 153.34 335.63 153.34 340.7L150.95 340.7L150.95 314.07L153.34 314.07L153.34 326.93"
              id="a4ewPDYAfb"></path>
        <path fill="#fff" stroke="#fff"
              d="M177.96 326.23L173.31 326.23C173.31 331.99 173.31 335.2 173.31 335.84C173.31 338.3 174.33 338.87 175.77 338.87C176.45 338.87 177.22 338.65 177.85 338.34C177.86 338.55 177.95 340.21 177.96 340.42C177.11 340.73 176.24 340.91 175.14 340.91C173.38 340.91 170.92 340.13 170.92 336.51C170.92 335.83 170.92 332.4 170.92 326.23L167.5 326.23L167.5 324.22L170.92 324.22L170.92 319.56L173.31 319.56L173.31 324.22L177.96 324.22"
              id="bEAvl5u5D"></path>
        <path fill="#fff" stroke="#fff" d="M188.87 340.7L191.41 340.7L191.41 315.76L188.87 315.76L188.87 340.7Z"
              id="c3yG3JCs38"></path>
        <path fill="#fff" stroke="#fff"
              d="M199.16 324.22C199.22 325.1 199.29 326.33 199.29 327.04C199.3 327.04 199.36 327.04 199.37 327.04C200.29 325.12 202.67 323.8 205 323.8C209.18 323.8 211.27 326.5 211.27 330.6C211.27 331.27 211.27 334.64 211.27 340.7L208.87 340.7C208.87 335.22 208.87 332.18 208.87 331.57C208.87 328.12 207.85 325.8 204.4 325.8C201.87 325.8 199.4 327.85 199.4 332.24C199.4 332.81 199.4 335.63 199.4 340.7L197 340.7C197 332.99 197 328.7 197 327.85C197 326.97 196.97 325.34 196.86 324.22"
              id="atpocDOeY"></path>
        <path fill="#fff" stroke="#fff"
              d="M224.01 326.23L219.37 326.23C219.37 331.99 219.37 335.2 219.37 335.84C219.37 338.3 220.39 338.87 221.83 338.87C222.51 338.87 223.27 338.65 223.91 338.34C223.92 338.55 224 340.21 224.01 340.42C223.17 340.73 222.29 340.91 221.2 340.91C219.43 340.91 216.97 340.13 216.97 336.51C216.97 335.83 216.97 332.4 216.97 326.23L213.56 326.23L213.56 324.22L216.97 324.22L216.97 319.56L219.37 319.56L219.37 324.22L224.01 324.22"
              id="ahI6YToyA"></path>
        <path fill="#fff" stroke="#fff"
              d="M239.43 331.19C239.3 328.09 237.4 325.8 233.99 325.8C230.78 325.8 228.42 328.38 228.2 331.19C230.45 331.19 237.19 331.19 239.43 331.19ZM241.83 333.09C233.64 333.09 229.08 333.09 228.17 333.09C228.24 336.41 230.81 339.08 234.19 339.08C236.66 339.08 238.56 337.71 239.47 336.23C239.65 336.37 241.09 337.49 241.27 337.63C239.33 340.1 236.9 341.12 234.19 341.12C229.3 341.12 225.67 337.42 225.67 332.45C225.67 327.48 229.3 323.79 233.99 323.79C239.16 323.79 241.87 327.46 241.87 331.96C241.87 332.28 241.87 332.67 241.83 333.09"
              id="a9hudE2jS"></path>
        <path fill="#fff" stroke="#fff" d="M246.2 340.7L248.59 340.7L248.59 314.07L246.2 314.07L246.2 340.7Z"
              id="e3t3JAVFlz"></path>
        <path fill="#fff" stroke="#fff" d="M254.19 340.7L256.59 340.7L256.59 314.07L254.19 314.07L254.19 340.7Z"
              id="a17w1Lm8IS"></path>
        <path fill="#fff" stroke="#fff"
              d="M264.54 340.7L262.16 340.7L262.16 324.22L264.54 324.22L264.54 340.7ZM263.35 319.56C262.51 319.56 261.65 318.86 261.65 317.87C261.65 316.89 262.51 316.19 263.35 316.19C264.19 316.19 265.04 316.89 265.04 317.87C265.04 318.86 264.19 319.56 263.35 319.56"
              id="i5BNbkEQzh"></path>
        <path fill="#fff" stroke="#fff"
              d="M277.61 338.65C281.3 338.65 283.95 336.04 283.95 332.24C283.95 328.79 281.3 325.8 277.61 325.8C273.64 325.8 271.38 328.79 271.38 332.24C271.38 335.69 273.64 338.65 277.61 338.65M270.91 344.01C272.22 345.7 274.71 347.03 277.22 347.03C281.94 347.03 283.68 344.13 283.68 340.56C283.68 340.35 283.68 339.32 283.68 337.46C283.63 337.46 283.6 337.46 283.6 337.46C282.33 339.51 279.76 340.7 277.36 340.7C272.22 340.7 268.84 337.13 268.84 332.32C268.84 327.63 272.22 323.79 277.36 323.79C279.76 323.79 282.3 324.95 283.6 327.07C283.6 327.07 283.63 327.07 283.68 327.07L283.68 324.22L286.06 324.22C286.06 334.02 286.06 339.47 286.06 340.56C286.06 344.15 284.4 349.15 277.11 349.15C274.09 349.15 271.12 347.87 269.19 345.84"
              id="b1sDIfxHRF"></path>
        <path fill="#fff" stroke="#fff"
              d="M303.99 331.19C303.85 328.09 301.94 325.8 298.53 325.8C295.32 325.8 292.96 328.38 292.76 331.19C295 331.19 301.74 331.19 303.99 331.19ZM306.38 333.09C298.18 333.09 293.63 333.09 292.72 333.09C292.78 336.41 295.35 339.08 298.74 339.08C301.2 339.08 303.11 337.71 304.03 336.23C304.21 336.37 305.64 337.49 305.82 337.63C303.89 340.1 301.45 341.12 298.74 341.12C293.85 341.12 290.21 337.42 290.21 332.45C290.21 327.48 293.85 323.79 298.53 323.79C303.7 323.79 306.41 327.46 306.41 331.96C306.41 332.28 306.41 332.67 306.38 333.09"
              id="cwDT7Jx94"></path>
        <path fill="#fff" stroke="#fff"
              d="M312.82 324.22C312.89 325.1 312.97 326.33 312.97 327.04C312.97 327.04 313.02 327.04 313.03 327.04C313.95 325.12 316.35 323.8 318.67 323.8C322.86 323.8 324.94 326.5 324.94 330.6C324.94 331.27 324.94 334.64 324.94 340.7L322.55 340.7C322.55 335.22 322.55 332.18 322.55 331.57C322.55 328.12 321.53 325.8 318.06 325.8C315.53 325.8 313.07 327.85 313.07 332.24C313.07 332.81 313.07 335.63 313.07 340.7L310.67 340.7C310.67 332.99 310.67 328.7 310.67 327.85C310.67 326.97 310.64 325.34 310.54 324.22"
              id="c37fHRInC5"></path>
        <path fill="#fff" stroke="#fff"
              d="M337.69 326.23L333.03 326.23C333.03 331.99 333.03 335.2 333.03 335.84C333.03 338.3 334.06 338.87 335.5 338.87C336.17 338.87 336.95 338.65 337.58 338.34C337.59 338.55 337.68 340.21 337.69 340.42C336.83 340.73 335.96 340.91 334.87 340.91C333.11 340.91 330.64 340.13 330.64 336.51C330.64 335.83 330.64 332.4 330.64 326.23L327.22 326.23L327.22 324.22L330.64 324.22L330.64 319.56L333.03 319.56L333.03 324.22L337.69 324.22"
              id="b4vpZNn34V"></path>
        <path fill="#fff" stroke="#fff"
              d="M360.67 319.78C359.62 318.26 357.9 317.28 355.54 317.28C353.07 317.28 350.22 318.75 350.22 321.96C350.22 325.12 352.86 325.94 355.64 326.86C359.17 328.02 363.03 329.14 363.03 334.15C363.03 339.14 358.84 341.34 354.9 341.34C351.88 341.34 348.84 340.09 347.05 337.64C347.27 337.48 349.01 336.18 349.23 336.02C350.32 337.78 352.33 339.14 354.94 339.14C357.51 339.14 360.46 337.52 360.46 334.32C360.46 330.84 357.55 329.95 354.37 328.98C351.06 327.95 347.68 326.5 347.68 322C347.68 317.17 351.98 315.14 355.64 315.14C358.99 315.14 361.49 316.54 362.68 318.16"
              id="abKc3hdaR"></path>
        <path fill="#fff" stroke="#fff"
              d="M372.68 338.13L372.76 338.13L377.86 324.22L380.47 324.22C375.55 336.67 372.82 343.59 372.27 344.97C371.28 347.5 369.95 349.15 367.08 349.15C366.38 349.15 365.64 349.08 364.94 348.94C364.96 348.72 365.16 346.98 365.19 346.76C365.72 346.93 366.31 347.04 366.95 347.04C368.57 347.04 369.41 345.98 370.12 344.13C370.2 343.89 370.65 342.74 371.45 340.66L364.41 324.22L367.08 324.22"
              id="cba7C29Fyp"></path>
        <path fill="#fff" stroke="#fff"
              d="M392.09 328.12C391.39 326.76 389.87 325.8 388.04 325.8C386.32 325.8 384.55 326.54 384.55 328.38C384.55 329.92 385.78 330.62 388.5 331.19C392.37 332 394.2 333.44 394.2 336.02C394.2 339.78 391.04 341.12 388 341.12C385.5 341.12 383.01 340.13 381.49 337.91C381.68 337.77 383.2 336.65 383.38 336.51C384.24 337.95 386.03 339.08 387.96 339.08C390.01 339.08 391.84 338.34 391.84 336.19C391.84 334.46 390.12 333.76 386.98 333.02C385.04 332.57 382.27 331.71 382.27 328.59C382.27 325.24 385.15 323.79 388.14 323.79C390.43 323.79 392.87 324.89 393.92 326.76"
              id="aGKvPU2OZ"></path>
        <path fill="#fff" stroke="#fff"
              d="M405.5 326.23L400.86 326.23C400.86 331.99 400.86 335.2 400.86 335.84C400.86 338.3 401.87 338.87 403.32 338.87C404 338.87 404.76 338.65 405.4 338.34C405.41 338.55 405.49 340.21 405.5 340.42C404.66 340.73 403.77 340.91 402.69 340.91C400.92 340.91 398.46 340.13 398.46 336.51C398.46 335.83 398.46 332.4 398.46 326.23L395.05 326.23L395.05 324.22L398.46 324.22L398.46 319.56L400.86 319.56L400.86 324.22L405.5 324.22"
              id="b8P2KSDNs"></path>
        <path fill="#fff" stroke="#fff"
              d="M420.92 331.19C420.79 328.09 418.89 325.8 415.46 325.8C412.27 325.8 409.91 328.38 409.69 331.19C411.94 331.19 418.68 331.19 420.92 331.19ZM423.32 333.09C415.13 333.09 410.57 333.09 409.66 333.09C409.73 336.41 412.3 339.08 415.68 339.08C418.15 339.08 420.04 337.71 420.96 336.23C421.14 336.37 422.57 337.49 422.75 337.63C420.82 340.1 418.39 341.12 415.68 341.12C410.78 341.12 407.16 337.42 407.16 332.45C407.16 327.48 410.78 323.79 415.46 323.79C420.65 323.79 423.36 327.46 423.36 331.96C423.36 332.28 423.36 332.67 423.32 333.09"
              id="a2p0YQkUk5"></path>
        <path fill="#fff" stroke="#fff"
              d="M435.4 323.8C437.2 323.8 439.38 324.46 440.47 327.28C441.6 325.03 443.61 323.8 446.24 323.8C450.43 323.8 452.52 326.5 452.52 330.6C452.52 331.27 452.52 334.64 452.52 340.7L450.12 340.7C450.12 335.22 450.12 332.18 450.12 331.57C450.12 328.12 448.97 325.8 445.85 325.8C442.4 325.8 441.17 328.86 441.17 331.93C441.17 332.52 441.17 335.44 441.17 340.7L438.78 340.7C438.78 334.93 438.78 331.72 438.78 331.08C438.78 327.87 438.01 325.8 434.8 325.8C432.52 325.8 430.02 327.85 430.02 332.24C430.02 332.81 430.02 335.63 430.02 340.7L427.62 340.7C427.62 332.99 427.62 328.7 427.62 327.85C427.62 326.97 427.58 325.34 427.47 324.22C427.7 324.22 429.54 324.22 429.77 324.22C429.83 325.1 429.91 326.33 429.91 327.04C429.92 327.04 429.97 327.04 429.98 327.04C430.92 325.12 433.04 323.8 435.4 323.8"
              id="a4FY1XUeHb"></path>
        <path fill="#fff" stroke="#fff"
              d="M468.75 331.83L479.73 331.83L474.25 318.59L468.75 331.83ZM465.08 340.7L462.3 340.7L473.08 315.76L475.54 315.76L486.24 340.7L483.43 340.7L480.68 334.15L467.8 334.15"
              id="lQinvKaPU"></path>
        <path fill="#fff" stroke="#fff"
              d="M500.86 340.7C500.8 339.82 500.72 338.59 500.72 337.89C500.71 337.89 500.66 337.89 500.66 337.89C499.73 339.78 497.33 341.12 495.01 341.12C490.82 341.12 488.75 338.41 488.75 334.32C488.75 333.65 488.75 330.28 488.75 324.22L491.15 324.22C491.15 329.69 491.15 332.73 491.15 333.33C491.15 336.78 492.16 339.11 495.61 339.11C498.15 339.11 500.62 337.07 500.62 332.67C500.62 332.11 500.62 329.29 500.62 324.22L503.02 324.22C503.02 331.93 503.02 336.21 503.02 337.07C503.02 337.95 503.04 339.57 503.15 340.7"
              id="e1pihWhPgB"></path>
        <path fill="#fff" stroke="#fff"
              d="M515.9 326.23L511.25 326.23C511.25 331.99 511.25 335.2 511.25 335.84C511.25 338.3 512.28 338.87 513.72 338.87C514.38 338.87 515.16 338.65 515.79 338.34C515.8 338.55 515.89 340.21 515.9 340.42C515.05 340.73 514.17 340.91 513.08 340.91C511.33 340.91 508.85 340.13 508.85 336.51C508.85 335.83 508.85 332.4 508.85 326.23L505.44 326.23L505.44 324.22L508.85 324.22L508.85 319.56L511.25 319.56L511.25 324.22L515.9 324.22"
              id="aLjGE2d4s"></path>
        <path fill="#fff" stroke="#fff"
              d="M526.32 325.8C522.51 325.8 520.09 328.77 520.09 332.45C520.09 336.15 522.51 339.08 526.32 339.08C530.16 339.08 532.59 336.15 532.59 332.45C532.59 328.77 530.16 325.8 526.32 325.8M526.32 341.12C521.21 341.12 517.56 337.42 517.56 332.45C517.56 327.48 521.21 323.8 526.32 323.8C531.46 323.8 535.13 327.48 535.13 332.45C535.13 337.42 531.46 341.12 526.32 341.12"
              id="b8zEiFmQ2"></path>
        <path fill="#fff" stroke="#fff"
              d="M547.17 323.8C548.97 323.8 551.15 324.46 552.24 327.28C553.37 325.03 555.38 323.8 558.01 323.8C562.2 323.8 564.28 326.5 564.28 330.6C564.28 331.27 564.28 334.64 564.28 340.7L561.89 340.7C561.89 335.22 561.89 332.18 561.89 331.57C561.89 328.12 560.72 325.8 557.62 325.8C554.17 325.8 552.94 328.86 552.94 331.93C552.94 332.52 552.94 335.44 552.94 340.7L550.54 340.7C550.54 334.93 550.54 331.72 550.54 331.08C550.54 327.87 549.78 325.8 546.56 325.8C544.28 325.8 541.77 327.85 541.77 332.24C541.77 332.81 541.77 335.63 541.77 340.7L539.39 340.7C539.39 332.99 539.39 328.7 539.39 327.85C539.39 326.97 539.35 325.34 539.24 324.22C539.47 324.22 541.3 324.22 541.53 324.22C541.6 325.1 541.68 326.33 541.68 327.04C541.69 327.04 541.74 327.04 541.75 327.04C542.69 325.12 544.81 323.8 547.17 323.8"
              id="b2eo7XIaV"></path>
        <path fill="#fff" stroke="#fff"
              d="M579.29 332.45C575.37 332.45 570.83 332.88 570.83 336.02C570.83 338.37 572.84 339.14 574.71 339.14C578.08 339.14 579.99 336.62 579.99 333.68C579.99 333.6 579.99 333.19 579.99 332.45C579.61 332.45 579.38 332.45 579.29 332.45ZM579.99 330.07C579.99 327.21 578.44 325.8 575.59 325.8C573.64 325.8 571.85 326.58 570.69 327.74C570.55 327.59 569.48 326.32 569.35 326.16C570.69 324.81 573.01 323.8 575.83 323.8C579.39 323.8 582.24 325.76 582.24 329.78C582.24 330.5 582.24 336.28 582.24 337C582.24 338.26 582.35 339.78 582.53 340.7C582.31 340.7 580.59 340.7 580.37 340.7C580.23 339.88 580.13 338.9 580.13 338.03C580.12 338.03 580.07 338.03 580.06 338.03C578.55 340.21 576.7 341.12 574.07 341.12C571.57 341.12 568.36 339.78 568.36 336.12C568.36 331.05 573.97 330.6 579.99 330.6"
              id="bwkOtTYwD"></path>
        <path fill="#fff" stroke="#fff"
              d="M594.59 326.23L589.95 326.23C589.95 331.99 589.95 335.2 589.95 335.84C589.95 338.3 590.97 338.87 592.41 338.87C593.09 338.87 593.85 338.65 594.49 338.34C594.5 338.55 594.58 340.21 594.59 340.42C593.75 340.73 592.88 340.91 591.78 340.91C590.02 340.91 587.56 340.13 587.56 336.51C587.56 335.83 587.56 332.4 587.56 326.23L584.14 326.23L584.14 324.22L587.56 324.22L587.56 319.56L589.95 319.56L589.95 324.22L594.59 324.22"
              id="e15ELWel6R"></path>
        <path fill="#fff" stroke="#fff"
              d="M599.88 340.7L597.48 340.7L597.48 324.22L599.88 324.22L599.88 340.7ZM598.68 319.56C597.83 319.56 596.99 318.86 596.99 317.87C596.99 316.89 597.83 316.19 598.68 316.19C599.52 316.19 600.38 316.89 600.38 317.87C600.38 318.86 599.52 319.56 598.68 319.56"
              id="b4pyDDwxF"></path>
        <path fill="#fff" stroke="#fff"
              d="M612.94 325.8C609.14 325.8 606.71 328.77 606.71 332.45C606.71 336.15 609.14 339.08 612.94 339.08C616.78 339.08 619.21 336.15 619.21 332.45C619.21 328.77 616.78 325.8 612.94 325.8M612.94 341.12C607.83 341.12 604.18 337.42 604.18 332.45C604.18 327.48 607.83 323.8 612.94 323.8C618.09 323.8 621.75 327.48 621.75 332.45C621.75 337.42 618.09 341.12 612.94 341.12"
              id="alxBlAhkA"></path>
        <path fill="#fff" stroke="#fff"
              d="M628.16 324.22C628.22 325.1 628.3 326.33 628.3 327.04C628.31 327.04 628.36 327.04 628.37 327.04C629.28 325.12 631.67 323.8 634 323.8C638.2 323.8 640.27 326.5 640.27 330.6C640.27 331.27 640.27 334.64 640.27 340.7L637.87 340.7C637.87 335.22 637.87 332.18 637.87 331.57C637.87 328.12 636.85 325.8 633.4 325.8C630.87 325.8 628.41 327.85 628.41 332.24C628.41 332.81 628.41 335.63 628.41 340.7L626.01 340.7C626.01 332.99 626.01 328.7 626.01 327.85C626.01 326.97 625.97 325.34 625.86 324.22"
              id="b12b338kff"></path>
        <path fill="#fff" stroke="#fff"
              d="M0.37 286.3C0.37 193.35 0.37 141.72 0.37 131.39C0.37 129.69 0.96 128.2 2.18 126.95C3.37 125.72 4.76 125.09 6.32 125.09C8.03 125.09 9.5 125.72 10.69 126.95C11.91 128.2 12.51 129.69 12.51 131.39C12.51 146.02 12.51 263.04 12.51 277.66C12.51 279.93 13.63 281.05 15.89 281.05C22.97 281.05 79.56 281.05 86.64 281.05C88.11 281.05 89.4 281.62 90.49 282.75C91.58 283.88 92.12 285.21 92.12 286.77C92.12 288.32 91.58 289.67 90.49 290.8C89.4 291.92 88.11 292.49 86.64 292.49C78.58 292.49 14.14 292.49 6.09 292.49C4.45 292.49 3.09 291.94 2 290.85C0.91 289.76 0.37 288.25 0.37 286.3"
              id="g1kmeyjrdc"></path>
        <path fill="#fff" stroke="#fff"
              d="M166.2 286.3C166.2 233.2 166.2 203.7 166.2 197.8C166.2 196.1 166.81 194.61 168.01 193.36C169.22 192.13 170.6 191.5 172.15 191.5C173.86 191.5 175.33 192.13 176.54 193.36C177.74 194.61 178.34 196.1 178.34 197.8C178.34 206.65 178.34 277.45 178.34 286.3C178.34 288.01 177.74 289.48 176.54 290.67C175.33 291.89 173.86 292.49 172.15 292.49C170.6 292.49 169.22 291.89 168.01 290.67C166.81 289.48 166.2 288.01 166.2 286.3"
              id="aryEa10aa"></path>
        <path fill="#fff" stroke="#fff"
              d="M256.05 263.77C256.05 262.14 256.49 260.74 257.38 259.57C258.28 258.4 259.5 257.82 261.07 257.82C262 257.82 262.83 257.97 263.57 258.28C264.31 258.6 264.88 258.93 265.27 259.27C265.66 259.63 266.32 260.27 267.26 261.2C282.35 276.3 299.28 283.85 318.04 283.85C330.57 283.85 340.46 280.88 347.74 274.91C355.02 268.96 358.66 260.97 358.66 250.93C358.66 244.16 357.38 238.62 354.81 234.3C352.24 229.98 347.7 226.21 341.2 222.98C334.7 219.75 325.47 216.84 313.48 214.27C304.61 212.41 297.06 210.29 290.84 207.92C284.61 205.54 279.05 202.51 274.14 198.81C269.24 195.12 265.6 190.58 263.22 185.21C260.85 179.84 259.67 173.53 259.67 166.29C259.67 153.61 264.3 143.1 273.56 134.77C282.82 126.45 295.31 122.28 311.03 122.28C321.46 122.28 330.22 123.67 337.3 126.43C344.38 129.2 351.19 132.91 357.73 137.58C361.54 140.46 363.45 143.34 363.45 146.22C363.45 147.77 362.98 149.08 362.05 150.13C361.11 151.18 360.06 151.7 358.9 151.7C357.57 151.7 356.46 151.49 355.56 151.07C354.67 150.64 353.45 149.8 351.89 148.55C339.75 138.51 325.98 133.49 310.57 133.49C298.19 133.49 288.59 136.47 281.78 142.43C274.97 148.38 271.57 156.25 271.57 166.06C271.57 175.79 274.96 183.36 281.73 188.77C288.5 194.18 300.59 198.79 318.04 202.6C336.64 206.65 350 212.25 358.13 219.41C366.26 226.57 370.34 236.65 370.34 249.65C370.34 263.5 365.51 274.55 355.86 282.8C346.21 291.05 333.41 295.17 317.45 295.17C297.3 295.17 278.35 287.27 260.6 271.48C257.57 268.83 256.05 266.26 256.05 263.77"
              id="j1BriBRMTT"></path>
        <path fill="#fff" stroke="#fff"
              d="M431.05 286.3C431.05 285.45 431.22 284.55 431.53 283.62C438.49 268.01 494.14 143.14 501.1 127.54C502.11 125.12 504.42 123.92 507.98 123.92C511.56 123.92 513.78 125.12 514.65 127.54C521.58 143.14 577.05 268.01 583.98 283.62C584.29 284.55 584.45 285.45 584.45 286.3C584.45 287 584.33 287.75 584.1 288.52C583.55 290.09 582.58 291.24 581.18 292.02C580.4 292.33 579.62 292.49 578.84 292.49C578.07 292.49 577.29 292.33 576.51 292.02C574.95 291.4 573.79 290.27 573.01 288.64C568.64 278.63 546.81 228.59 507.52 138.51C468.36 228.59 446.61 278.63 442.26 288.64C441.64 290.27 440.55 291.4 439 292.02C438.21 292.33 437.4 292.49 436.54 292.49C435.76 292.49 435.02 292.33 434.32 292.02C432.93 291.24 431.95 290.09 431.4 288.52C431.17 287.75 431.05 287 431.05 286.3"
              id="b248kKpAzD"></path>
        <path d="M176.67 166.66C176.67 140.91 176.67 126.61 176.67 123.75C176.67 121.91 171.79 128.03 175.93 125.93C188.55 119.51 201.17 113.1 213.79 106.69C259.85 83.28 305.9 59.88 351.96 36.48C367.75 28.45 383.54 20.42 399.34 12.41C401 11.56 402.66 10.72 404.31 9.88C407.9 8.06 404.23 10.63 401.06 9.02C404.06 10.54 407.04 12.06 410.04 13.57C450.57 34.17 491.11 54.77 531.64 75.37C558.32 88.94 585.02 102.49 611.7 116.04C618.17 119.34 624.66 122.63 631.13 125.93C635.28 128.03 630.4 122.05 630.4 123.28C630.4 139.66 630.4 270.65 630.4 287.03C630.4 293.45 640.37 293.45 640.37 287.03C640.37 270.58 640.37 138.96 640.37 122.5C640.37 120.83 639.44 118.99 637.9 118.21C565.46 81.4 493.03 44.59 420.59 7.78C415.9 5.4 406.14 -2.21 400.57 0.62C397.32 2.27 371.3 15.49 368.05 17.14C322.38 40.36 276.7 63.56 231.03 86.77C210.4 97.25 189.79 107.73 169.17 118.21C167.63 118.99 166.7 120.83 166.7 122.5C166.7 126.92 166.7 162.24 166.7 166.66C166.7 173.08 176.67 173.08 176.67 166.66"
              id="b2eZzU9dy" fill="#1bbc9b" stroke="#1bbc9b"></path>
        <path d="M510.5 226.22C510.5 229.02 508.23 231.29 505.44 231.29C502.64 231.29 500.37 229.02 500.37 226.22C500.37 223.42 502.64 221.16 505.44 221.16C508.23 221.16 510.5 223.42 510.5 226.22"
              id="d6TIEYBCni" fill="#1bbc9b" stroke="#1bbc9b"></path>
    </defs>
    <g>
        <g>
            <use xlink:href="#aEH24TwR9" opacity="1" fill="#000000" fill-opacity="1"></use>
            <g>
                <use xlink:href="#aEH24TwR9" opacity="1" fill-opacity="0" stroke="#000000" stroke-width="1"
                     stroke-opacity="0"></use>
            </g>
        </g>
        <g>
            <use xlink:href="#aMJTZ00r3" opacity="1" fill="#000000" fill-opacity="1"></use>
            <g>
                <use xlink:href="#aMJTZ00r3" opacity="1" fill-opacity="0" stroke="#000000" stroke-width="1"
                     stroke-opacity="0"></use>
            </g>
        </g>
        <g>
            <use xlink:href="#azgCrJJVD" opacity="1" fill="#000000" fill-opacity="1"></use>
            <g>
                <use xlink:href="#azgCrJJVD" opacity="1" fill-opacity="0" stroke="#000000" stroke-width="1"
                     stroke-opacity="0"></use>
            </g>
        </g>
        <g>
            <use xlink:href="#b1AW4rNs5a" opacity="1" fill="#000000" fill-opacity="1"></use>
            <g>
                <use xlink:href="#b1AW4rNs5a" opacity="1" fill-opacity="0" stroke="#000000" stroke-width="1"
                     stroke-opacity="0"></use>
            </g>
        </g>
        <g>
            <use xlink:href="#d5ZSR8JtF" opacity="1" fill="#000000" fill-opacity="1"></use>
            <g>
                <use xlink:href="#d5ZSR8JtF" opacity="1" fill-opacity="0" stroke="#000000" stroke-width="1"
                     stroke-opacity="0"></use>
            </g>
        </g>
        <g>
            <use xlink:href="#ihx3aXOdg" opacity="1" fill="#000000" fill-opacity="1"></use>
            <g>
                <use xlink:href="#ihx3aXOdg" opacity="1" fill-opacity="0" stroke="#000000" stroke-width="1"
                     stroke-opacity="0"></use>
            </g>
        </g>
        <g>
            <use xlink:href="#akmmKP5dU" opacity="1" fill="#000000" fill-opacity="1"></use>
            <g>
                <use xlink:href="#akmmKP5dU" opacity="1" fill-opacity="0" stroke="#000000" stroke-width="1"
                     stroke-opacity="0"></use>
            </g>
        </g>
        <g>
            <use xlink:href="#b7XEEBnN" opacity="1" fill="#000000" fill-opacity="1"></use>
            <g>
                <use xlink:href="#b7XEEBnN" opacity="1" fill-opacity="0" stroke="#000000" stroke-width="1"
                     stroke-opacity="0"></use>
            </g>
        </g>
        <g>
            <use xlink:href="#dVmoRtjxV" opacity="1" fill="#000000" fill-opacity="1"></use>
            <g>
                <use xlink:href="#dVmoRtjxV" opacity="1" fill-opacity="0" stroke="#000000" stroke-width="1"
                     stroke-opacity="0"></use>
            </g>
        </g>
        <g>
            <use xlink:href="#a4ewPDYAfb" opacity="1" fill="#000000" fill-opacity="1"></use>
            <g>
                <use xlink:href="#a4ewPDYAfb" opacity="1" fill-opacity="0" stroke="#000000" stroke-width="1"
                     stroke-opacity="0"></use>
            </g>
        </g>
        <g>
            <use xlink:href="#bEAvl5u5D" opacity="1" fill="#000000" fill-opacity="1"></use>
            <g>
                <use xlink:href="#bEAvl5u5D" opacity="1" fill-opacity="0" stroke="#000000" stroke-width="1"
                     stroke-opacity="0"></use>
            </g>
        </g>
        <g>
            <use xlink:href="#c3yG3JCs38" opacity="1" fill="#000000" fill-opacity="1"></use>
            <g>
                <use xlink:href="#c3yG3JCs38" opacity="1" fill-opacity="0" stroke="#000000" stroke-width="1"
                     stroke-opacity="0"></use>
            </g>
        </g>
        <g>
            <use xlink:href="#atpocDOeY" opacity="1" fill="#000000" fill-opacity="1"></use>
            <g>
                <use xlink:href="#atpocDOeY" opacity="1" fill-opacity="0" stroke="#000000" stroke-width="1"
                     stroke-opacity="0"></use>
            </g>
        </g>
        <g>
            <use xlink:href="#ahI6YToyA" opacity="1" fill="#000000" fill-opacity="1"></use>
            <g>
                <use xlink:href="#ahI6YToyA" opacity="1" fill-opacity="0" stroke="#000000" stroke-width="1"
                     stroke-opacity="0"></use>
            </g>
        </g>
        <g>
            <use xlink:href="#a9hudE2jS" opacity="1" fill="#000000" fill-opacity="1"></use>
            <g>
                <use xlink:href="#a9hudE2jS" opacity="1" fill-opacity="0" stroke="#000000" stroke-width="1"
                     stroke-opacity="0"></use>
            </g>
        </g>
        <g>
            <use xlink:href="#e3t3JAVFlz" opacity="1" fill="#000000" fill-opacity="1"></use>
            <g>
                <use xlink:href="#e3t3JAVFlz" opacity="1" fill-opacity="0" stroke="#000000" stroke-width="1"
                     stroke-opacity="0"></use>
            </g>
        </g>
        <g>
            <use xlink:href="#a17w1Lm8IS" opacity="1" fill="#000000" fill-opacity="1"></use>
            <g>
                <use xlink:href="#a17w1Lm8IS" opacity="1" fill-opacity="0" stroke="#000000" stroke-width="1"
                     stroke-opacity="0"></use>
            </g>
        </g>
        <g>
            <use xlink:href="#i5BNbkEQzh" opacity="1" fill="#000000" fill-opacity="1"></use>
            <g>
                <use xlink:href="#i5BNbkEQzh" opacity="1" fill-opacity="0" stroke="#000000" stroke-width="1"
                     stroke-opacity="0"></use>
            </g>
        </g>
        <g>
            <use xlink:href="#b1sDIfxHRF" opacity="1" fill="#000000" fill-opacity="1"></use>
            <g>
                <use xlink:href="#b1sDIfxHRF" opacity="1" fill-opacity="0" stroke="#000000" stroke-width="1"
                     stroke-opacity="0"></use>
            </g>
        </g>
        <g>
            <use xlink:href="#cwDT7Jx94" opacity="1" fill="#000000" fill-opacity="1"></use>
            <g>
                <use xlink:href="#cwDT7Jx94" opacity="1" fill-opacity="0" stroke="#000000" stroke-width="1"
                     stroke-opacity="0"></use>
            </g>
        </g>
        <g>
            <use xlink:href="#c37fHRInC5" opacity="1" fill="#000000" fill-opacity="1"></use>
            <g>
                <use xlink:href="#c37fHRInC5" opacity="1" fill-opacity="0" stroke="#000000" stroke-width="1"
                     stroke-opacity="0"></use>
            </g>
        </g>
        <g>
            <use xlink:href="#b4vpZNn34V" opacity="1" fill="#000000" fill-opacity="1"></use>
            <g>
                <use xlink:href="#b4vpZNn34V" opacity="1" fill-opacity="0" stroke="#000000" stroke-width="1"
                     stroke-opacity="0"></use>
            </g>
        </g>
        <g>
            <use xlink:href="#abKc3hdaR" opacity="1" fill="#000000" fill-opacity="1"></use>
            <g>
                <use xlink:href="#abKc3hdaR" opacity="1" fill-opacity="0" stroke="#000000" stroke-width="1"
                     stroke-opacity="0"></use>
            </g>
        </g>
        <g>
            <use xlink:href="#cba7C29Fyp" opacity="1" fill="#000000" fill-opacity="1"></use>
            <g>
                <use xlink:href="#cba7C29Fyp" opacity="1" fill-opacity="0" stroke="#000000" stroke-width="1"
                     stroke-opacity="0"></use>
            </g>
        </g>
        <g>
            <use xlink:href="#aGKvPU2OZ" opacity="1" fill="#000000" fill-opacity="1"></use>
            <g>
                <use xlink:href="#aGKvPU2OZ" opacity="1" fill-opacity="0" stroke="#000000" stroke-width="1"
                     stroke-opacity="0"></use>
            </g>
        </g>
        <g>
            <use xlink:href="#b8P2KSDNs" opacity="1" fill="#000000" fill-opacity="1"></use>
            <g>
                <use xlink:href="#b8P2KSDNs" opacity="1" fill-opacity="0" stroke="#000000" stroke-width="1"
                     stroke-opacity="0"></use>
            </g>
        </g>
        <g>
            <use xlink:href="#a2p0YQkUk5" opacity="1" fill="#000000" fill-opacity="1"></use>
            <g>
                <use xlink:href="#a2p0YQkUk5" opacity="1" fill-opacity="0" stroke="#000000" stroke-width="1"
                     stroke-opacity="0"></use>
            </g>
        </g>
        <g>
            <use xlink:href="#a4FY1XUeHb" opacity="1" fill="#000000" fill-opacity="1"></use>
            <g>
                <use xlink:href="#a4FY1XUeHb" opacity="1" fill-opacity="0" stroke="#000000" stroke-width="1"
                     stroke-opacity="0"></use>
            </g>
        </g>
        <g>
            <use xlink:href="#lQinvKaPU" opacity="1" fill="#000000" fill-opacity="1"></use>
            <g>
                <use xlink:href="#lQinvKaPU" opacity="1" fill-opacity="0" stroke="#000000" stroke-width="1"
                     stroke-opacity="0"></use>
            </g>
        </g>
        <g>
            <use xlink:href="#e1pihWhPgB" opacity="1" fill="#000000" fill-opacity="1"></use>
            <g>
                <use xlink:href="#e1pihWhPgB" opacity="1" fill-opacity="0" stroke="#000000" stroke-width="1"
                     stroke-opacity="0"></use>
            </g>
        </g>
        <g>
            <use xlink:href="#aLjGE2d4s" opacity="1" fill="#000000" fill-opacity="1"></use>
            <g>
                <use xlink:href="#aLjGE2d4s" opacity="1" fill-opacity="0" stroke="#000000" stroke-width="1"
                     stroke-opacity="0"></use>
            </g>
        </g>
        <g>
            <use xlink:href="#b8zEiFmQ2" opacity="1" fill="#000000" fill-opacity="1"></use>
            <g>
                <use xlink:href="#b8zEiFmQ2" opacity="1" fill-opacity="0" stroke="#000000" stroke-width="1"
                     stroke-opacity="0"></use>
            </g>
        </g>
        <g>
            <use xlink:href="#b2eo7XIaV" opacity="1" fill="#000000" fill-opacity="1"></use>
            <g>
                <use xlink:href="#b2eo7XIaV" opacity="1" fill-opacity="0" stroke="#000000" stroke-width="1"
                     stroke-opacity="0"></use>
            </g>
        </g>
        <g>
            <use xlink:href="#bwkOtTYwD" opacity="1" fill="#000000" fill-opacity="1"></use>
            <g>
                <use xlink:href="#bwkOtTYwD" opacity="1" fill-opacity="0" stroke="#000000" stroke-width="1"
                     stroke-opacity="0"></use>
            </g>
        </g>
        <g>
            <use xlink:href="#e15ELWel6R" opacity="1" fill="#000000" fill-opacity="1"></use>
            <g>
                <use xlink:href="#e15ELWel6R" opacity="1" fill-opacity="0" stroke="#000000" stroke-width="1"
                     stroke-opacity="0"></use>
            </g>
        </g>
        <g>
            <use xlink:href="#b4pyDDwxF" opacity="1" fill="#000000" fill-opacity="1"></use>
            <g>
                <use xlink:href="#b4pyDDwxF" opacity="1" fill-opacity="0" stroke="#000000" stroke-width="1"
                     stroke-opacity="0"></use>
            </g>
        </g>
        <g>
            <use xlink:href="#alxBlAhkA" opacity="1" fill="#000000" fill-opacity="1"></use>
            <g>
                <use xlink:href="#alxBlAhkA" opacity="1" fill-opacity="0" stroke="#000000" stroke-width="1"
                     stroke-opacity="0"></use>
            </g>
        </g>
        <g>
            <use xlink:href="#b12b338kff" opacity="1" fill="#000000" fill-opacity="1"></use>
            <g>
                <use xlink:href="#b12b338kff" opacity="1" fill-opacity="0" stroke="#000000" stroke-width="1"
                     stroke-opacity="0"></use>
            </g>
        </g>
        <g>
            <use xlink:href="#g1kmeyjrdc" opacity="1" fill="#000000" fill-opacity="1"></use>
            <g>
                <use xlink:href="#g1kmeyjrdc" opacity="1" fill-opacity="0" stroke="#000000" stroke-width="1"
                     stroke-opacity="0"></use>
            </g>
        </g>
        <g>
            <use xlink:href="#aryEa10aa" opacity="1" fill="#000000" fill-opacity="1"></use>
            <g>
                <use xlink:href="#aryEa10aa" opacity="1" fill-opacity="0" stroke="#000000" stroke-width="1"
                     stroke-opacity="0"></use>
            </g>
        </g>
        <g>
            <use xlink:href="#j1BriBRMTT" opacity="1" fill="#000000" fill-opacity="1"></use>
            <g>
                <use xlink:href="#j1BriBRMTT" opacity="1" fill-opacity="0" stroke="#000000" stroke-width="1"
                     stroke-opacity="0"></use>
            </g>
        </g>
        <g>
            <use xlink:href="#b248kKpAzD" opacity="1" fill="#000000" fill-opacity="1"></use>
            <g>
                <use xlink:href="#b248kKpAzD" opacity="1" fill-opacity="0" stroke="#000000" stroke-width="1"
                     stroke-opacity="0"></use>
            </g>
        </g>
        <g>
            <use xlink:href="#b2eZzU9dy" opacity="1" fill="#000000" fill-opacity="1"></use>
            <g>
                <use xlink:href="#b2eZzU9dy" opacity="1" fill-opacity="0" stroke="#000000" stroke-width="1"
                     stroke-opacity="0"></use>
            </g>
        </g>
        <g>
            <use xlink:href="#d6TIEYBCni" opacity="1" fill="#000000" fill-opacity="1"></use>
            <g>
                <use xlink:href="#d6TIEYBCni" opacity="1" fill-opacity="0" stroke="#000000" stroke-width="1"
                     stroke-opacity="0"></use>
            </g>
        </g>
    </g>
</svg>
